<svg width="56" height="56" viewBox="0 0 56 56" fill="none" xmlns="http://www.w3.org/2000/svg">
<path fill-rule="evenodd" clip-rule="evenodd" d="M27.375 24C26.944 24 26.5307 24.1712 26.226 24.476C25.9212 24.7807 25.75 25.194 25.75 25.625C25.75 26.056 25.9212 26.4693 26.226 26.774C26.5307 27.0788 26.944 27.25 27.375 27.25H32.625C34.5147 27.25 36.3269 28.0007 37.6631 29.3369C38.9993 30.6731 39.75 32.4853 39.75 34.375C39.75 36.2647 38.9993 38.0769 37.6631 39.4131C36.3269 40.7493 34.5147 41.5 32.625 41.5H24.75C23.2312 41.5 22 40.2688 22 38.75C22 37.2312 23.2312 36 24.75 36H32.625C33.056 36 33.4693 35.8288 33.774 35.524C34.0788 35.2193 34.25 34.806 34.25 34.375C34.25 33.944 34.0788 33.5307 33.774 33.226C33.4693 32.9212 33.056 32.75 32.625 32.75H27.375C25.4853 32.75 23.6731 31.9993 22.3369 30.6631C21.0007 29.3269 20.25 27.5147 20.25 25.625C20.25 23.7353 21.0007 21.9231 22.3369 20.5869C23.6731 19.2507 25.4853 18.5 27.375 18.5H35.25C36.7688 18.5 38 19.7312 38 21.25C38 22.7688 36.7688 24 35.25 24H27.375Z" fill="#FFE8C6"/>
<path d="M28.75 15.75C28.75 15.3358 28.4142 15 28 15C27.5858 15 27.25 15.3358 27.25 15.75V18.5H25.375C24.0158 18.5 22.7122 19.04 21.7511 20.0011C20.79 20.9622 20.25 22.2658 20.25 23.625C20.25 24.9842 20.79 26.2878 21.7511 27.2489C22.7122 28.21 24.0158 28.75 25.375 28.75H30.625C31.5864 28.75 32.5084 29.1319 33.1883 29.8117C33.8681 30.4916 34.25 31.4136 34.25 32.375C34.25 33.3364 33.8681 34.2584 33.1883 34.9383C32.5084 35.6181 31.5864 36 30.625 36H22.75C22.3358 36 22 36.3358 22 36.75C22 37.1642 22.3358 37.5 22.75 37.5H27.25V40.25C27.25 40.6642 27.5858 41 28 41C28.4142 41 28.75 40.6642 28.75 40.25V37.5H30.625C31.9842 37.5 33.2878 36.96 34.2489 35.9989C35.21 35.0378 35.75 33.7342 35.75 32.375C35.75 31.0158 35.21 29.7122 34.2489 28.7511C33.2878 27.79 31.9842 27.25 30.625 27.25H25.375C24.4136 27.25 23.4916 26.8681 22.8117 26.1883C22.1319 25.5084 21.75 24.5864 21.75 23.625C21.75 22.6636 22.1319 21.7416 22.8117 21.0617C23.4916 20.3819 24.4136 20 25.375 20H33.25C33.6642 20 34 19.6642 34 19.25C34 18.8358 33.6642 18.5 33.25 18.5H28.75V15.75Z" fill="#282828"/>
<path fill-rule="evenodd" clip-rule="evenodd" d="M6.25 28C6.25 15.9878 15.9878 6.25 28 6.25C40.0122 6.25 49.75 15.9878 49.75 28C49.75 40.0122 40.0122 49.75 28 49.75C15.9878 49.75 6.25 40.0122 6.25 28ZM28 7.75C16.8162 7.75 7.75 16.8162 7.75 28C7.75 39.1838 16.8162 48.25 28 48.25C39.1838 48.25 48.25 39.1838 48.25 28C48.25 16.8162 39.1838 7.75 28 7.75Z" fill="#282828"/>
</svg>
