<svg width="17" height="16" viewBox="0 0 17 16" fill="none" xmlns="http://www.w3.org/2000/svg">
  <path fill-rule="evenodd" clip-rule="evenodd" d="M0.5 2.5C0.5 1.11929 1.61929 0 3 0H7.67157C8.33461 0 8.9705 0.263392 9.43934 0.732233L15.0656 6.35846C16.4324 7.7253 16.4324 9.94137 15.0656 11.3082L11.8082 14.5656C10.4414 15.9324 8.22529 15.9324 6.85846 14.5656L1.23223 8.93934C0.763391 8.4705 0.5 7.83461 0.5 7.17157V2.5ZM3 1C2.17157 1 1.5 1.67157 1.5 2.5V7.17157C1.5 7.5694 1.65803 7.95093 1.93934 8.23223L7.56557 13.8585C8.54188 14.8348 10.1248 14.8348 11.1011 13.8585L14.3585 10.6011C15.3348 9.62479 15.3348 8.04188 14.3585 7.06557L8.73223 1.43934C8.45093 1.15804 8.0694 1 7.67157 1H3Z" fill="currentColor"/>
  <path d="M5.5 4C5.5 4.55228 5.05228 5 4.5 5C3.94772 5 3.5 4.55228 3.5 4C3.5 3.44772 3.94772 3 4.5 3C5.05228 3 5.5 3.44772 5.5 4Z" fill="currentColor"/>
</svg>
