<svg width="56" height="56" viewBox="0 0 56 56" fill="none" xmlns="http://www.w3.org/2000/svg">
<path d="M19.5 24.75L28.25 7.25C30.1065 7.25 31.887 7.9875 33.1997 9.30025C34.5125 10.613 35.25 12.3935 35.25 14.25V19.5H48.7906C49.2869 19.4988 49.7777 19.6038 50.23 19.8079C50.6824 20.0121 51.0858 20.3107 51.4132 20.6836C51.7406 21.0566 51.9843 21.4953 52.1281 21.9703C52.2719 22.4453 52.3124 22.9456 52.2469 23.4375L49.6219 44.4375" stroke="#FFE8C6" stroke-width="5.5" stroke-linecap="round" stroke-linejoin="round"/>
<path fill-rule="evenodd" clip-rule="evenodd" d="M7 23.5C6.73478 23.5 6.48043 23.6054 6.29289 23.7929C6.10536 23.9804 6 24.2348 6 24.5V43.75C6 44.0152 6.10536 44.2696 6.29289 44.4571C6.48043 44.6446 6.73478 44.75 7 44.75H16.75V23.5H7ZM7 22H17.5C17.9142 22 18.25 22.3358 18.25 22.75V45.5C18.25 45.9142 17.9142 46.25 17.5 46.25H7C6.33696 46.25 5.70107 45.9866 5.23223 45.5178C4.76339 45.0489 4.5 44.413 4.5 43.75V24.5C4.5 23.837 4.76339 23.2011 5.23223 22.7322C5.70107 22.2634 6.33696 22 7 22Z" fill="#282828"/>
<path d="M17.5 22.75L26.25 5.25C28.1065 5.25 29.887 5.9875 31.1997 7.30025C32.5125 8.61301 33.25 10.3935 33.25 12.25V17.5H46.7906C47.2869 17.4988 47.7777 17.6038 48.23 17.8079C48.6824 18.0121 49.0858 18.3107 49.4132 18.6836C49.7406 19.0566 49.9843 19.4953 50.1281 19.9703C50.2719 20.4453 50.3124 20.9456 50.2469 21.4375L47.6219 42.4375C47.5157 43.2805 47.1064 44.0561 46.4705 44.6196C45.8345 45.1831 45.0153 45.496 44.1656 45.5H17.5" stroke="#282828" stroke-width="1.5" stroke-linecap="round" stroke-linejoin="round"/>
</svg>
