<svg width="56" height="56" viewBox="0 0 56 56" fill="none" xmlns="http://www.w3.org/2000/svg">
<path fill-rule="evenodd" clip-rule="evenodd" d="M44.8889 22.0429L25.434 41.0727L18.1121 34.093L21.907 30.112L25.3848 33.4272L41.043 18.1111L44.8889 22.0429Z" fill="#FFE8C6"/>
<path d="M38.1427 23.2927C38.4424 23.0067 38.4536 22.532 38.1677 22.2323C37.8817 21.9326 37.407 21.9214 37.1073 22.2073L24.7848 33.963L18.8932 28.3328C18.5937 28.0466 18.119 28.0574 17.8328 28.3568C17.5466 28.6563 17.5574 29.1311 17.8568 29.4172L24.2662 35.5422C24.5559 35.8191 25.0121 35.8193 25.3021 35.5427L38.1427 23.2927Z" fill="#282828"/>
<path fill-rule="evenodd" clip-rule="evenodd" d="M28 4.5C27.1311 4.5 26.3464 4.81358 25.6492 5.2425C24.9559 5.669 24.3064 6.23653 23.7038 6.79902C23.4907 6.998 23.286 7.19369 23.0857 7.38515C22.6996 7.75436 22.3298 8.10787 21.9474 8.43899C21.374 8.93538 20.8472 9.31224 20.3401 9.52314C19.8359 9.73286 19.2057 9.83548 18.4588 9.88457C17.9674 9.91687 17.4724 9.92449 16.9539 9.93247C16.6711 9.93683 16.3812 9.94129 16.0812 9.94992C14.4935 9.99559 12.634 10.1491 11.3915 11.3915C10.148 12.635 10.0065 14.4743 9.96626 16.0508C9.95914 16.3292 9.95548 16.5997 9.9519 16.8644C9.94464 17.3998 9.93771 17.912 9.90314 18.4202C9.8523 19.1677 9.74496 19.8104 9.52384 20.3384C9.30103 20.8704 8.91648 21.4098 8.41983 21.9851C8.08059 22.3781 7.71821 22.7561 7.34076 23.1499C7.1583 23.3403 6.97231 23.5343 6.78371 23.7355C6.2244 24.3321 5.66029 24.9738 5.23671 25.6609C4.81009 26.353 4.5 27.1321 4.5 28C4.5 28.8689 4.81358 29.6536 5.2425 30.3508C5.669 31.0441 6.23653 31.6936 6.79902 32.2962C6.998 32.5093 7.19369 32.714 7.38515 32.9143C7.75436 33.3004 8.10787 33.6702 8.43899 34.0526C8.93538 34.626 9.31224 35.1528 9.52314 35.6599C9.73286 36.1641 9.83548 36.7943 9.88457 37.5412C9.91687 38.0326 9.92449 38.5276 9.93247 39.0461C9.93683 39.3289 9.94129 39.6188 9.94992 39.9188C9.99559 41.5065 10.1491 43.366 11.3915 44.6085C12.635 45.852 14.4743 45.9935 16.0508 46.0337C16.3292 46.0409 16.5995 46.0445 16.8642 46.0481C17.3995 46.0554 17.912 46.0623 18.4202 46.0969C19.1677 46.1477 19.8104 46.255 20.3384 46.4762C20.8704 46.699 21.4098 47.0835 21.9851 47.5802C22.3781 47.9194 22.7561 48.2818 23.1499 48.6592L23.1506 48.6599C23.3408 48.8422 23.5346 49.0279 23.7355 49.2163C24.3321 49.7756 24.9738 50.3397 25.6609 50.7633C26.353 51.1899 27.1321 51.5 28 51.5C28.8689 51.5 29.6536 51.1864 30.3508 50.7575C31.0441 50.331 31.6936 49.7635 32.2962 49.201C32.5092 49.0021 32.7137 48.8066 32.9139 48.6152C33.3 48.2461 33.6702 47.8921 34.0526 47.561C34.626 47.0646 35.1528 46.6878 35.6599 46.4769C36.1641 46.2671 36.7943 46.1645 37.5412 46.1154C38.0325 46.0831 38.5274 46.0755 39.0459 46.0675C39.3287 46.0632 39.6187 46.0587 39.9188 46.0501C41.5065 46.0044 43.366 45.8509 44.6085 44.6085C45.852 43.365 45.9935 41.5257 46.0337 39.9492C46.0409 39.6708 46.0445 39.4005 46.0481 39.1358C46.0554 38.6005 46.0623 38.088 46.0969 37.5798C46.1477 36.8323 46.255 36.1896 46.4762 35.6616C46.699 35.1296 47.0835 34.5902 47.5802 34.0149C47.9194 33.6219 48.2818 33.2439 48.6592 32.8501L48.6599 32.8494C48.8422 32.6592 49.0279 32.4654 49.2163 32.2645C49.7756 31.6679 50.3397 31.0262 50.7633 30.3391C51.1899 29.647 51.5 28.8679 51.5 28C51.5 27.1311 51.1864 26.3464 50.7575 25.6492C50.331 24.9559 49.7635 24.3064 49.201 23.7038C49.0021 23.4908 48.8066 23.2863 48.6152 23.0861C48.2461 22.7 47.8921 22.3298 47.561 21.9474C47.0646 21.374 46.6878 20.8472 46.4769 20.3401C46.2671 19.8359 46.1645 19.2057 46.1154 18.4588C46.0831 17.9675 46.0755 17.4726 46.0675 16.9541C46.0632 16.6713 46.0587 16.3813 46.0501 16.0812C46.0044 14.4935 45.8509 12.634 44.6085 11.3915C43.365 10.148 41.5257 10.0065 39.9492 9.96626C39.6707 9.95914 39.4003 9.95548 39.1356 9.9519C38.6001 9.94464 38.088 9.93771 37.5798 9.90314C36.8323 9.8523 36.1896 9.74496 35.6616 9.52384C35.1296 9.30103 34.5902 8.91648 34.0149 8.41983C33.6219 8.08059 33.2439 7.71821 32.8501 7.34076C32.6597 7.1583 32.4657 6.97231 32.2645 6.78371C31.6679 6.2244 31.0262 5.66029 30.3391 5.23671C29.647 4.81009 28.8679 4.5 28 4.5ZM20.9162 10.9081C21.645 10.605 22.3158 10.1041 22.9292 9.57302C23.3386 9.21861 23.7563 8.81943 24.1594 8.43424C24.3529 8.24927 24.5431 8.06753 24.7274 7.89552C25.317 7.34511 25.8761 6.86401 26.4352 6.5201C26.9903 6.1786 27.5017 6 28 6C28.4993 6 29.0053 6.17663 29.5519 6.51359C30.1035 6.85358 30.6539 7.32989 31.2386 7.87801C31.4131 8.04159 31.593 8.21393 31.7763 8.3896C32.1855 8.78171 32.6121 9.19042 33.0347 9.55527C33.6543 10.0902 34.3345 10.5943 35.0822 10.9074C35.8339 11.2222 36.6677 11.3446 37.4781 11.3997C38.0266 11.437 38.6095 11.445 39.1681 11.4527C39.4226 11.4562 39.672 11.4597 39.9109 11.4658C41.5446 11.5075 42.7788 11.6832 43.5478 12.4522C44.3179 13.2223 44.5034 14.4799 44.5507 16.1243C44.5581 16.3802 44.5623 16.6486 44.5666 16.9219C44.5752 17.4664 44.5841 18.0311 44.6187 18.5571C44.6714 19.3599 44.7875 20.1844 45.0919 20.9162C45.3951 21.645 45.8959 22.3158 46.427 22.9292C46.7813 23.3385 47.1805 23.7562 47.5656 24.1592C47.7506 24.3528 47.9325 24.5432 48.1045 24.7274C48.6549 25.317 49.136 25.8761 49.4799 26.4352C49.8214 26.9903 50 27.5017 50 28C50 28.4993 49.8234 29.0053 49.4864 29.5519C49.1464 30.1035 48.6701 30.6539 48.122 31.2386C47.9584 31.4131 47.786 31.593 47.6104 31.7763C47.2183 32.1855 46.8096 32.6121 46.4447 33.0347C45.9098 33.6543 45.4057 34.3345 45.0926 35.0822C44.7778 35.8339 44.6554 36.6677 44.6003 37.4781C44.563 38.0266 44.555 38.6094 44.5473 39.1679C44.5438 39.4224 44.5403 39.672 44.5342 39.9109C44.4925 41.5446 44.3168 42.7788 43.5478 43.5478C42.7777 44.3179 41.5201 44.5034 39.8757 44.5507C39.6198 44.5581 39.3514 44.5623 39.0781 44.5666C38.5336 44.5752 37.9689 44.5841 37.4429 44.6187C36.6401 44.6714 35.8156 44.7875 35.0838 45.0919C34.355 45.3951 33.6842 45.8959 33.0708 46.427C32.6615 46.7813 32.2438 47.1805 31.8408 47.5656C31.6472 47.7506 31.4568 47.9325 31.2726 48.1045C30.683 48.6549 30.1239 49.136 29.5648 49.4799C29.0097 49.8214 28.4983 50 28 50C27.5007 50 26.9947 49.8234 26.4481 49.4864C25.8965 49.1464 25.3461 48.6701 24.7614 48.122C24.5869 47.9584 24.407 47.786 24.2237 47.6104C23.8145 47.2183 23.3879 46.8096 22.9653 46.4447C22.3457 45.9098 21.6655 45.4057 20.9178 45.0926C20.1661 44.7778 19.3323 44.6554 18.5219 44.6003C17.9734 44.563 17.3906 44.555 16.8321 44.5473C16.5776 44.5438 16.328 44.5403 16.0891 44.5342C14.4554 44.4925 13.2212 44.3168 12.4522 43.5478C11.6821 42.7777 11.4966 41.5201 11.4493 39.8757C11.4419 39.6197 11.4377 39.3513 11.4334 39.0779C11.4248 38.5334 11.4159 37.969 11.3813 37.4429C11.3286 36.6401 11.2125 35.8156 10.9081 35.0838C10.605 34.355 10.1041 33.6842 9.57302 33.0708C9.21861 32.6614 8.81943 32.2437 8.43424 31.8406C8.24927 31.6471 8.06753 31.4569 7.89552 31.2726C7.34511 30.683 6.86401 30.1239 6.5201 29.5648C6.1786 29.0097 6 28.4983 6 28C6 27.5007 6.17663 26.9947 6.51359 26.4481C6.85358 25.8965 7.32989 25.3461 7.87801 24.7614C8.04159 24.5869 8.21393 24.407 8.3896 24.2237C8.78171 23.8145 9.19042 23.3879 9.55527 22.9653C10.0902 22.3457 10.5943 21.6655 10.9074 20.9178C11.2222 20.1661 11.3446 19.3323 11.3997 18.5219C11.437 17.9734 11.445 17.3905 11.4527 16.8319C11.4562 16.5774 11.4597 16.328 11.4658 16.0891C11.5075 14.4554 11.6832 13.2212 12.4522 12.4522C13.2223 11.6821 14.4799 11.4966 16.1243 11.4493C16.3803 11.4419 16.6487 11.4377 16.9221 11.4334C17.4666 11.4248 18.0311 11.4159 18.5571 11.3813C19.3599 11.3286 20.1844 11.2125 20.9162 10.9081Z" fill="#282828"/>
</svg>
